Patient4_TMGait_0pt4_02_left_16_GRF.mot
version=1
nRows=26
nColumns=19
inDegrees=no
endheader
time	F1x	F1y	F1z	M1x	M1y	M1z	F2x	F2y	F2z	M2x	M2y	M2z	EC1x	EC1y	EC1z	EC2x	EC2y	EC2z
21.32	-12.1699	0.45095	-1.7105	-0.84331	-1.1334	-7.75	-37.7366	748.7832	-65.6433	285.0655	90.2873	846.4858	-0.0592	0.0182	-0.0073	-0.0462	0.0165	0.9585
21.3339	-8.069	1.034	-1.0516	-0.81665	-0.85849	-4.3689	-33.5306	736.0346	-65.3941	280.3556	87.6379	831.7541	-0.0592	0.0182	-0.0073	-0.0462	0.0165	0.9585
21.3479	-4.6394	1.5808	-0.52109	-0.80571	-0.61971	-1.4273	-29.2448	724.2481	-65.1428	275.7806	84.939	817.2958	-0.0592	0.0182	-0.0073	-0.0462	0.0165	0.9585
21.3618	-2.0699	2.054	-0.13603	-0.81111	-0.43447	0.90381	-25.1014	715.1702	-64.897	272.0415	82.3386	805.0138	-0.0592	0.0182	-0.0073	-0.0462	0.0165	0.9585
21.3757	-0.32113	2.4315	0.11954	-0.82667	-0.30576	2.5872	-21.2104	710.1698	-64.6445	269.7485	79.8985	796.4563	-0.0592	0.0182	-0.0073	-0.0462	0.0165	0.9585
21.3896	0.72555	2.7002	0.26835	-0.84249	-0.22838	3.676	-17.5854	709.9956	-64.3444	269.2902	77.5986	792.5107	-0.0592	0.0182	-0.0073	-0.0462	0.0165	0.9585
21.4036	1.224	2.8385	0.34644	-0.8447	-0.20358	4.2537	-14.1675	714.6745	-63.97	270.7678	75.3912	793.272	-0.0592	0.0182	-0.0073	-0.0462	0.0165	0.9585
21.4175	1.3415	2.8078	0.37683	-0.81342	-0.21892	4.3735	-10.8671	723.5619	-63.4889	273.9966	73.1966	798.0907	-0.0592	0.0182	-0.0073	-0.0462	0.0165	0.9585
21.4314	1.1995	2.559	0.39224	-0.72371	-0.28114	4.0809	-7.5736	735.4399	-62.9034	278.5396	70.9524	805.6935	-0.0592	0.0182	-0.0073	-0.0462	0.0165	0.9585
21.4454	0.92087	2.0184	0.40244	-0.54575	-0.37119	3.3491	-4.193	748.676	-62.2275	283.7724	68.6149	814.3781	-0.0592	0.0182	-0.0073	-0.0462	0.0165	0.9585
21.4593	0.57904	1.1068	0.42163	-0.24675	-0.48356	2.1365	-0.66024	761.4079	-61.4779	288.9607	66.1543	822.2254	-0.0592	0.0182	-0.0073	-0.0462	0.0165	0.9585
21.4732	0.23772	-0.2382	0.43769	0.19847	-0.59321	0.39838	3.0884	771.7984	-60.6848	293.3659	63.5581	827.3749	-0.0592	0.0182	-0.0073	-0.0462	0.0165	0.9585
21.4871	-0.04221	-2.0508	0.4397	0.8023	-0.66949	-1.893	7.0757	778.34	-59.8878	296.3666	60.8411	828.3615	-0.0592	0.0182	-0.0073	-0.0462	0.0165	0.9585
21.5011	-0.21531	-4.2585	0.40205	1.5412	-0.66508	-4.6394	11.256	780.0553	-59.1488	297.5433	58.0703	824.3056	-0.0592	0.0182	-0.0073	-0.0462	0.0165	0.9585
21.515	-0.19948	-6.6287	0.29106	2.3331	-0.51289	-7.568	15.5138	776.6258	-58.5304	296.733	55.3522	815.0302	-0.0592	0.0182	-0.0073	-0.0462	0.0165	0.9585
21.5289	0.095963	-8.6809	0.07649	3.0112	-0.14286	-10.1021	19.678	768.4726	-58.1018	294.0601	52.8343	801.1397	-0.0592	0.0182	-0.0073	-0.0462	0.0165	0.9585
21.5429	0.78946	-9.6062	-0.28575	3.294	0.53588	-11.2737	23.5919	756.6588	-57.9295	289.9065	50.6664	783.8763	-0.0592	0.0182	-0.0073	-0.0462	0.0165	0.9585
21.5568	2.0175	-8.1973	-0.81387	2.7632	1.5995	-9.6446	27.1262	742.6569	-58.078	284.8217	48.9803	764.8708	-0.0592	0.0182	-0.0073	-0.0462	0.0165	0.9585
21.5707	3.8929	-2.8035	-1.5314	0.85362	3.1149	-3.2355	30.1949	727.9809	-58.5666	279.382	47.8428	745.7573	-0.0592	0.0182	-0.0073	-0.0462	0.0165	0.9585
21.5846	6.471	8.5717	-2.4131	-3.1163	5.0702	10.354	32.7375	713.7673	-59.3533	274.0257	47.2486	727.7384	-0.0592	0.0182	-0.0073	-0.0462	0.0165	0.9585
21.5986	9.6716	28.0828	-3.3764	-9.8799	7.3299	33.7129	34.6921	700.4509	-60.318	268.9281	47.1075	711.287	-0.0592	0.0182	-0.0073	-0.0462	0.0165	0.9585
21.6125	13.1879	57.619	-4.2301	-20.0735	9.5477	69.1144	36.0064	687.6057	-61.2501	263.9405	47.2314	695.9915	-0.0592	0.0182	-0.0073	-0.0462	0.0165	0.9585
21.6264	16.3746	98.0432	-4.6455	-33.9714	11.0931	117.6085	36.5986	674.0111	-61.866	258.6101	47.3699	680.6385	-0.0592	0.0182	-0.0073	-0.0462	0.0165	0.9585
21.6404	18.108	148.1134	-4.1285	-51.1148	10.9752	177.7369	36.3952	657.9246	-61.8449	252.2846	47.2353	663.4675	-0.0592	0.0182	-0.0073	-0.0462	0.0165	0.9585
21.6543	16.9849	203.3266	-2.0168	-69.9181	7.9296	244.1403	35.3752	637.5634	-60.904	244.3	46.5598	642.6393	-0.0592	0.0182	-0.0073	-0.0462	0.0165	0.9585
21.6682	12.8882	256.4984	2.3583	-87.8868	1.1773	308.1903	33.6189	611.7517	-58.8793	234.2266	45.1555	616.8711	-0.0592	0.0182	-0.0073	-0.0462	0.0165	0.9585
